<?xml version="1.0" encoding="UTF-8" standalone="no"?>
<svg
   xmlns:dc="http://purl.org/dc/elements/1.1/"
   xmlns:cc="http://creativecommons.org/ns#"
   xmlns:rdf="http://www.w3.org/1999/02/22-rdf-syntax-ns#"
   xmlns:svg="http://www.w3.org/2000/svg"
   xmlns="http://www.w3.org/2000/svg"
   xmlns:sodipodi="http://sodipodi.sourceforge.net/DTD/sodipodi-0.dtd"
   xmlns:inkscape="http://www.inkscape.org/namespaces/inkscape"
   id="svg4306"
   style="enable-background:new"
   width="22"
   height="22"
   version="1.1"
   sodipodi:docname="alldesktops.svg"
   inkscape:version="0.92.5 (2060ec1f9f, 2020-04-08)">
  <metadata
     id="metadata24">
    <rdf:RDF>
      <cc:Work
         rdf:about="">
        <dc:format>image/svg+xml</dc:format>
        <dc:type
           rdf:resource="http://purl.org/dc/dcmitype/StillImage" />
      </cc:Work>
    </rdf:RDF>
  </metadata>
  <defs
     id="defs22" />
  <sodipodi:namedview
     pagecolor="#ffffff"
     bordercolor="#666666"
     borderopacity="1"
     objecttolerance="10"
     gridtolerance="10"
     guidetolerance="10"
     inkscape:pageopacity="0"
     inkscape:pageshadow="2"
     inkscape:window-width="793"
     inkscape:window-height="480"
     id="namedview20"
     showgrid="false"
     inkscape:zoom="10.727273"
     inkscape:cx="11"
     inkscape:cy="11"
     inkscape:window-x="0"
     inkscape:window-y="56"
     inkscape:window-maximized="0"
     inkscape:current-layer="svg4306" />
  <g
     id="active-center"
     style="fill:#0066a8;fill-opacity:1">
    <rect
       id="rect862"
       style="opacity:0.001;fill:#0066a8;fill-opacity:1"
       width="22"
       height="22"
       x="0"
       y="0" />
    <path
       id="path839"
       style="opacity:1;fill:#0066a8;fill-opacity:1"
       d="M 11 3 C 6.5817221 3.0000002 3.0000002 6.5817221 3 11 C 3.0000002 15.418278 6.5817221 19 11 19 C 15.418278 19 19 15.418278 19 11 C 19 6.5817221 15.418278 3.0000002 11 3 z M 11 4 C 14.865993 3.9999999 18 7.1340067 18 11 C 18 14.865993 14.865993 18 11 18 C 7.1340067 18 3.9999999 14.865993 4 11 C 3.9999999 7.1340067 7.1340067 3.9999999 11 4 z M 8 7 C 7.446 7 7 7.446 7 8 L 7 9 C 7 9.554 7.446 10 8 10 L 9 10 C 9.554 10 10 9.554 10 9 L 10 8 C 10 7.446 9.554 7 9 7 L 8 7 z M 13 7 C 12.446 7 12 7.446 12 8 L 12 9 C 12 9.554 12.446 10 13 10 L 14 10 C 14.554 10 15 9.554 15 9 L 15 8 C 15 7.446 14.554 7 14 7 L 13 7 z M 8 12 C 7.446 12 7 12.446 7 13 L 7 14 C 7 14.554 7.446 15 8 15 L 9 15 C 9.554 15 10 14.554 10 14 L 10 13 C 10 12.446 9.554 12 9 12 L 8 12 z M 13 12 C 12.446 12 12 12.446 12 13 L 12 14 C 12 14.554 12.446 15 13 15 L 14 15 C 14.554 15 15 14.554 15 14 L 15 13 C 15 12.446 14.554 12 14 12 L 13 12 z" />
  </g>
  <g
     id="hover-center"
     transform="translate(22)">
    <rect
       id="rect858"
       style="opacity:0.001"
       width="22"
       height="22"
       x="0"
       y="0" />
    <rect
       id="rect860"
       style="opacity:0.1;fill:#ffffff"
       width="22"
       height="22"
       x="0"
       y="0"
       rx="6"
       ry="6" />
    <path
       id="path862"
       style="opacity:1;fill:#eff0f1"
       transform="translate(-22)"
       d="M 33 3 C 28.581722 3.0000002 25 6.5817221 25 11 C 25 15.418278 28.581722 19 33 19 C 37.418278 19 41 15.418278 41 11 C 41 6.5817221 37.418278 3.0000002 33 3 z M 33 4 C 36.865993 3.9999999 40 7.1340067 40 11 C 40 14.865993 36.865993 18 33 18 C 29.134007 18 26 14.865993 26 11 C 26 7.1340067 29.134007 3.9999999 33 4 z M 30 7 C 29.446 7 29 7.446 29 8 L 29 9 C 29 9.554 29.446 10 30 10 L 31 10 C 31.554 10 32 9.554 32 9 L 32 8 C 32 7.446 31.554 7 31 7 L 30 7 z M 35 7 C 34.446 7 34 7.446 34 8 L 34 9 C 34 9.554 34.446 10 35 10 L 36 10 C 36.554 10 37 9.554 37 9 L 37 8 C 37 7.446 36.554 7 36 7 L 35 7 z M 30 12 C 29.446 12 29 12.446 29 13 L 29 14 C 29 14.554 29.446 15 30 15 L 31 15 C 31.554 15 32 14.554 32 14 L 32 13 C 32 12.446 31.554 12 31 12 L 30 12 z M 35 12 C 34.446 12 34 12.446 34 13 L 34 14 C 34 14.554 34.446 15 35 15 L 36 15 C 36.554 15 37 14.554 37 14 L 37 13 C 37 12.446 36.554 12 36 12 L 35 12 z" />
  </g>
  <g
     id="pressed-center"
     transform="translate(44)">
    <rect
       id="rect866"
       style="opacity:0.001"
       width="22"
       height="22"
       x="0"
       y="0" />
    <rect
       id="rect868"
       style="opacity:0.2;fill:#ffffff"
       width="22"
       height="22"
       x="0"
       y="0"
       rx="6"
       ry="6" />
    <path
       id="path870"
       style="opacity:1;fill:#eff0f1"
       transform="translate(-44)"
       d="M 55 3 C 50.581722 3.0000002 47 6.5817221 47 11 C 47 15.418278 50.581722 19 55 19 C 59.418278 19 63 15.418278 63 11 C 63 6.5817221 59.418278 3.0000002 55 3 z M 55 4 C 58.865993 3.9999999 62 7.1340067 62 11 C 62 14.865993 58.865993 18 55 18 C 51.134007 18 48 14.865993 48 11 C 48 7.1340067 51.134007 3.9999999 55 4 z M 52 7 C 51.446 7 51 7.446 51 8 L 51 9 C 51 9.554 51.446 10 52 10 L 53 10 C 53.554 10 54 9.554 54 9 L 54 8 C 54 7.446 53.554 7 53 7 L 52 7 z M 57 7 C 56.446 7 56 7.446 56 8 L 56 9 C 56 9.554 56.446 10 57 10 L 58 10 C 58.554 10 59 9.554 59 9 L 59 8 C 59 7.446 58.554 7 58 7 L 57 7 z M 52 12 C 51.446 12 51 12.446 51 13 L 51 14 C 51 14.554 51.446 15 52 15 L 53 15 C 53.554 15 54 14.554 54 14 L 54 13 C 54 12.446 53.554 12 53 12 L 52 12 z M 57 12 C 56.446 12 56 12.446 56 13 L 56 14 C 56 14.554 56.446 15 57 15 L 58 15 C 58.554 15 59 14.554 59 14 L 59 13 C 59 12.446 58.554 12 58 12 L 57 12 z" />
  </g>
  <g
     id="inactive-center"
     transform="translate(66)">
    <rect
       id="rect874"
       style="opacity:0.001"
       width="22"
       height="22"
       x="0"
       y="0" />
    <path
       id="path876"
       style="opacity:0.5;fill:#eff0f1"
       transform="translate(-66)"
       d="M 77 3 C 72.581722 3.0000002 69 6.5817221 69 11 C 69 15.418278 72.581722 19 77 19 C 81.418278 19 85 15.418278 85 11 C 85 6.5817221 81.418278 3.0000002 77 3 z M 77 4 C 80.865993 3.9999999 84 7.1340067 84 11 C 84 14.865993 80.865993 18 77 18 C 73.134007 18 70 14.865993 70 11 C 70 7.1340067 73.134007 3.9999999 77 4 z M 74 7 C 73.446 7 73 7.446 73 8 L 73 9 C 73 9.554 73.446 10 74 10 L 75 10 C 75.554 10 76 9.554 76 9 L 76 8 C 76 7.446 75.554 7 75 7 L 74 7 z M 79 7 C 78.446 7 78 7.446 78 8 L 78 9 C 78 9.554 78.446 10 79 10 L 80 10 C 80.554 10 81 9.554 81 9 L 81 8 C 81 7.446 80.554 7 80 7 L 79 7 z M 74 12 C 73.446 12 73 12.446 73 13 L 73 14 C 73 14.554 73.446 15 74 15 L 75 15 C 75.554 15 76 14.554 76 14 L 76 13 C 76 12.446 75.554 12 75 12 L 74 12 z M 79 12 C 78.446 12 78 12.446 78 13 L 78 14 C 78 14.554 78.446 15 79 15 L 80 15 C 80.554 15 81 14.554 81 14 L 81 13 C 81 12.446 80.554 12 80 12 L 79 12 z" />
  </g>
  <g
     id="deactivated-center"
     transform="translate(88)">
    <rect
       id="rect880"
       style="opacity:0.001"
       width="22"
       height="22"
       x="0"
       y="0" />
    <path
       id="path882"
       style="opacity:0.5;fill:#eff0f1"
       transform="translate(-88)"
       d="M 99 3 C 94.581722 3.0000002 91 6.5817221 91 11 C 91 15.418278 94.581722 19 99 19 C 103.41828 19 107 15.418278 107 11 C 107 6.5817221 103.41828 3.0000002 99 3 z M 99 4 C 102.86599 3.9999999 106 7.1340067 106 11 C 106 14.865993 102.86599 18 99 18 C 95.134007 18 92 14.865993 92 11 C 92 7.1340067 95.134007 3.9999999 99 4 z M 96 7 C 95.446 7 95 7.446 95 8 L 95 9 C 95 9.554 95.446 10 96 10 L 97 10 C 97.554 10 98 9.554 98 9 L 98 8 C 98 7.446 97.554 7 97 7 L 96 7 z M 101 7 C 100.446 7 100 7.446 100 8 L 100 9 C 100 9.554 100.446 10 101 10 L 102 10 C 102.554 10 103 9.554 103 9 L 103 8 C 103 7.446 102.554 7 102 7 L 101 7 z M 96 12 C 95.446 12 95 12.446 95 13 L 95 14 C 95 14.554 95.446 15 96 15 L 97 15 C 97.554 15 98 14.554 98 14 L 98 13 C 98 12.446 97.554 12 97 12 L 96 12 z M 101 12 C 100.446 12 100 12.446 100 13 L 100 14 C 100 14.554 100.446 15 101 15 L 102 15 C 102.554 15 103 14.554 103 14 L 103 13 C 103 12.446 102.554 12 102 12 L 101 12 z" />
  </g>
</svg>
