<?xml version="1.0" encoding="UTF-8" standalone="no"?>
<svg
   xmlns:dc="http://purl.org/dc/elements/1.1/"
   xmlns:cc="http://creativecommons.org/ns#"
   xmlns:rdf="http://www.w3.org/1999/02/22-rdf-syntax-ns#"
   xmlns:svg="http://www.w3.org/2000/svg"
   xmlns="http://www.w3.org/2000/svg"
   xmlns:sodipodi="http://sodipodi.sourceforge.net/DTD/sodipodi-0.dtd"
   xmlns:inkscape="http://www.inkscape.org/namespaces/inkscape"
   id="svg4306"
   style="enable-background:new"
   width="22"
   height="22"
   version="1.1"
   sodipodi:docname="close.svg"
   inkscape:version="0.92.5 (2060ec1f9f, 2020-04-08)">
  <metadata
     id="metadata24">
    <rdf:RDF>
      <cc:Work
         rdf:about="">
        <dc:format>image/svg+xml</dc:format>
        <dc:type
           rdf:resource="http://purl.org/dc/dcmitype/StillImage" />
      </cc:Work>
    </rdf:RDF>
  </metadata>
  <defs
     id="defs22" />
  <sodipodi:namedview
     pagecolor="#ffffff"
     bordercolor="#666666"
     borderopacity="1"
     objecttolerance="10"
     gridtolerance="10"
     guidetolerance="10"
     inkscape:pageopacity="0"
     inkscape:pageshadow="2"
     inkscape:window-width="1920"
     inkscape:window-height="1040"
     id="namedview20"
     showgrid="false"
     inkscape:zoom="10.727273"
     inkscape:cx="-35.750001"
     inkscape:cy="26.116364"
     inkscape:window-x="0"
     inkscape:window-y="40"
     inkscape:window-maximized="1"
     inkscape:current-layer="svg4306" />
  <g
     id="active-center"
     style="fill:#ff0000;fill-opacity:1">
    <rect
       id="rect862"
       style="opacity:0.001;fill:#ff0000;fill-opacity:1"
       width="22"
       height="22"
       x="0"
       y="0" />
    <path
       id="path839"
       style="opacity:1;fill:#ff0000;fill-opacity:1"
       d="M 11 3 A 8.0000004 8.0000004 0 0 0 3 11 A 8.0000004 8.0000004 0 0 0 11 19 A 8.0000004 8.0000004 0 0 0 19 11 A 8.0000004 8.0000004 0 0 0 11 3 z M 11 4 A 6.9999998 6.9999998 0 0 1 18 11 A 6.9999998 6.9999998 0 0 1 11 18 A 6.9999998 6.9999998 0 0 1 4 11 A 6.9999998 6.9999998 0 0 1 11 4 z M 13.980469 7 A 0.99648998 0.99648998 0 0 0 13.285156 7.3066406 L 11 9.5917969 L 8.7148438 7.3066406 A 0.99648998 0.99648998 0 0 0 8.0019531 7.0039062 A 0.99648998 0.99648998 0 0 0 7.3066406 8.7148438 L 9.5917969 11 L 7.3066406 13.285156 A 0.99648998 0.99648998 0 1 0 8.7148438 14.693359 L 11 12.408203 L 13.285156 14.693359 A 0.99648998 0.99648998 0 1 0 14.693359 13.285156 L 12.408203 11 L 14.693359 8.7148438 A 0.99648998 0.99648998 0 0 0 13.980469 7 z" />
  </g>
  <g
     id="hover-center"
     transform="translate(22)">
    <rect
       id="rect858"
       style="opacity:0.001"
       width="22"
       height="22"
       x="0"
       y="0" />
    <rect
       id="rect860"
       style="opacity:0.1;fill:#ffffff"
       width="22"
       height="22"
       x="0"
       y="0"
       rx="6"
       ry="6" />
    <path
       id="path862"
       style="opacity:1;fill:#eff0f1"
       d="m 11,3 a 8.0000004,8.0000004 0 0 0 -8,8 8.0000004,8.0000004 0 0 0 8,8 8.0000004,8.0000004 0 0 0 8,-8 8.0000004,8.0000004 0 0 0 -8,-8 z m 0,1 a 6.9999998,6.9999998 0 0 1 7,7 6.9999998,6.9999998 0 0 1 -7,7 6.9999998,6.9999998 0 0 1 -7,-7 6.9999998,6.9999998 0 0 1 7,-7 z m 2.980469,3 A 0.99648998,0.99648998 0 0 0 13.285156,7.3066406 L 11,9.5917969 8.7148438,7.3066406 A 0.99648998,0.99648998 0 0 0 8.0019531,7.0039062 0.99648998,0.99648998 0 0 0 7.3066406,8.7148438 L 9.5917969,11 7.3066406,13.285156 a 0.99648998,0.99648998 0 1 0 1.4082032,1.408203 L 11,12.408203 l 2.285156,2.285156 a 0.99648998,0.99648998 0 1 0 1.408203,-1.408203 L 12.408203,11 14.693359,8.7148438 A 0.99648998,0.99648998 0 0 0 13.980469,7 Z" />
  </g>
  <g
     id="pressed-center"
     transform="translate(44)">
    <rect
       id="rect866"
       style="opacity:0.001"
       width="22"
       height="22"
       x="0"
       y="0" />
    <rect
       id="rect868"
       style="opacity:0.2;fill:#ffffff"
       width="22"
       height="22"
       x="0"
       y="0"
       rx="6"
       ry="6" />
    <path
       id="path870"
       style="opacity:1;fill:#eff0f1"
       d="m 11,3 a 8.0000004,8.0000004 0 0 0 -8,8 8.0000004,8.0000004 0 0 0 8,8 8.0000004,8.0000004 0 0 0 8,-8 8.0000004,8.0000004 0 0 0 -8,-8 z m 0,1 a 6.9999998,6.9999998 0 0 1 7,7 6.9999998,6.9999998 0 0 1 -7,7 6.9999998,6.9999998 0 0 1 -7,-7 6.9999998,6.9999998 0 0 1 7,-7 z m 2.980469,3 A 0.99648998,0.99648998 0 0 0 13.285156,7.3066406 L 11,9.5917969 8.7148438,7.3066406 A 0.99648998,0.99648998 0 0 0 8.0019531,7.0039062 0.99648998,0.99648998 0 0 0 7.3066406,8.7148438 L 9.5917969,11 7.3066406,13.285156 a 0.99648998,0.99648998 0 1 0 1.4082032,1.408203 L 11,12.408203 l 2.285156,2.285156 a 0.99648998,0.99648998 0 1 0 1.408203,-1.408203 L 12.408203,11 14.693359,8.7148438 A 0.99648998,0.99648998 0 0 0 13.980469,7 Z" />
  </g>
  <g
     id="inactive-center"
     transform="translate(66)">
    <rect
       id="rect874"
       style="opacity:0.001"
       width="22"
       height="22"
       x="0"
       y="0" />
    <path
       id="path876"
       style="opacity:0.5;fill:#eff0f1"
       d="m 11,3 a 8.0000004,8.0000004 0 0 0 -8,8 8.0000004,8.0000004 0 0 0 8,8 8.0000004,8.0000004 0 0 0 8,-8 8.0000004,8.0000004 0 0 0 -8,-8 z m 0,1 a 6.9999998,6.9999998 0 0 1 7,7 6.9999998,6.9999998 0 0 1 -7,7 6.9999998,6.9999998 0 0 1 -7,-7 6.9999998,6.9999998 0 0 1 7,-7 z m 2.980469,3 A 0.99648998,0.99648998 0 0 0 13.285156,7.3066406 L 11,9.5917969 8.7148438,7.3066406 A 0.99648998,0.99648998 0 0 0 8.0019531,7.0039062 0.99648998,0.99648998 0 0 0 7.3066406,8.7148438 L 9.5917969,11 7.3066406,13.285156 a 0.99648998,0.99648998 0 1 0 1.4082032,1.408203 L 11,12.408203 l 2.285156,2.285156 a 0.99648998,0.99648998 0 1 0 1.408203,-1.408203 L 12.408203,11 14.693359,8.7148438 A 0.99648998,0.99648998 0 0 0 13.980469,7 Z" />
  </g>
  <g
     id="deactivated-center"
     transform="translate(88)">
    <rect
       id="rect880"
       style="opacity:0.001"
       width="22"
       height="22"
       x="0"
       y="0" />
    <path
       id="path882"
       style="opacity:0.5;fill:#eff0f1"
       d="m 11,3 a 8.0000004,8.0000004 0 0 0 -8,8 8.0000004,8.0000004 0 0 0 8,8 8.0000004,8.0000004 0 0 0 8,-8 8.0000004,8.0000004 0 0 0 -8,-8 z m 0,1 a 6.9999998,6.9999998 0 0 1 7,7 6.9999998,6.9999998 0 0 1 -7,7 6.9999998,6.9999998 0 0 1 -7,-7 6.9999998,6.9999998 0 0 1 7,-7 z m 2.980469,3 A 0.99648998,0.99648998 0 0 0 13.285156,7.3066406 L 11,9.5917969 8.7148438,7.3066406 A 0.99648998,0.99648998 0 0 0 8.0019531,7.0039062 0.99648998,0.99648998 0 0 0 7.3066406,8.7148438 L 9.5917969,11 7.3066406,13.285156 a 0.99648998,0.99648998 0 1 0 1.4082032,1.408203 L 11,12.408203 l 2.285156,2.285156 a 0.99648998,0.99648998 0 1 0 1.408203,-1.408203 L 12.408203,11 14.693359,8.7148438 A 0.99648998,0.99648998 0 0 0 13.980469,7 Z" />
  </g>
</svg>
