<svg xmlns="http://www.w3.org/2000/svg" id="svg4306" style="enable-background:new" width="22" height="22" version="1.1">
 <g id="active-center" transform="matrix(1,0,0,-1,0,22)">
  <rect id="rect862" style="opacity:0.001" width="22" height="22" x="0" y="0"/>
  <path id="path839" style="opacity:1;fill:#eff0f1" d="m 11,3 c -4.4182779,2e-7 -7.9999998,3.5817221 -8,8 2e-7,4.418278 3.5817221,8 8,8 4.418278,0 8,-3.581722 8,-8 0,-4.4182779 -3.581722,-7.9999998 -8,-8 z m 0,1 c 3.865993,-10e-8 7,3.1340067 7,7 0,3.865993 -3.134007,7 -7,7 -3.8659933,0 -7.0000001,-3.134007 -7,-7 -10e-8,-3.8659933 3.1340067,-7.0000001 7,-7 z m -0.0078,3 A 0.800462,1.0010008 0 0 0 10.4375,7.2890625 L 7.2324219,11.292969 A 0.800462,1.0010008 0 0 0 7.8007812,13 h 6.4042968 a 0.800462,1.0010008 0 0 0 0.5625,-1.707031 L 11.570312,7.2890625 A 0.800462,1.0010008 0 0 0 10.992188,7 Z"/>
 </g>
 <g id="hover-center" transform="matrix(1,0,0,-1,22,22)">
  <rect id="rect858" style="opacity:0.001" width="22" height="22" x="0" y="0"/>
  <rect id="rect860" style="opacity:0.1;fill:#ffffff" width="22" height="22" x="0" y="0" rx="6" ry="6"/>
  <path id="path862" style="opacity:1;fill:#eff0f1" transform="translate(-22)" d="m 33,3 c -4.418278,2e-7 -8,3.5817221 -8,8 0,4.418278 3.581722,8 8,8 4.418278,0 8,-3.581722 8,-8 0,-4.4182779 -3.581722,-7.9999998 -8,-8 z m 0,1 c 3.865993,-10e-8 7,3.1340067 7,7 0,3.865993 -3.134007,7 -7,7 -3.865993,0 -7,-3.134007 -7,-7 0,-3.8659933 3.134007,-7.0000001 7,-7 z m -0.0078,3 A 0.800462,1.0010008 0 0 0 32.4375,7.2890625 L 29.232422,11.292969 A 0.800462,1.0010008 0 0 0 29.800781,13 h 6.404297 a 0.800462,1.0010008 0 0 0 0.5625,-1.707031 L 33.570312,7.2890625 A 0.800462,1.0010008 0 0 0 32.992188,7 Z"/>
 </g>
 <g id="pressed-center" transform="matrix(1,0,0,-1,44,22)">
  <rect id="rect866" style="opacity:0.001" width="22" height="22" x="0" y="0"/>
  <rect id="rect868" style="opacity:0.2;fill:#ffffff" width="22" height="22" x="0" y="0" rx="6" ry="6"/>
  <path id="path870" style="opacity:1;fill:#eff0f1" transform="translate(-44)" d="m 55,3 c -4.418278,2e-7 -8,3.5817221 -8,8 0,4.418278 3.581722,8 8,8 4.418278,0 8,-3.581722 8,-8 0,-4.4182779 -3.581722,-7.9999998 -8,-8 z m 0,1 c 3.865993,-10e-8 7,3.1340067 7,7 0,3.865993 -3.134007,7 -7,7 -3.865993,0 -7,-3.134007 -7,-7 0,-3.8659933 3.134007,-7.0000001 7,-7 z m -0.0078,3 A 0.800462,1.0010008 0 0 0 54.4375,7.2890625 L 51.232422,11.292969 A 0.800462,1.0010008 0 0 0 51.800781,13 h 6.404297 a 0.800462,1.0010008 0 0 0 0.5625,-1.707031 L 55.570312,7.2890625 A 0.800462,1.0010008 0 0 0 54.992188,7 Z"/>
 </g>
 <g id="inactive-center" transform="matrix(1,0,0,-1,66,22)">
  <rect id="rect874" style="opacity:0.001" width="22" height="22" x="0" y="0"/>
  <path id="path876" style="opacity:0.5;fill:#eff0f1" transform="translate(-66)" d="m 77,3 c -4.418278,2e-7 -8,3.5817221 -8,8 0,4.418278 3.581722,8 8,8 4.418278,0 8,-3.581722 8,-8 0,-4.4182779 -3.581722,-7.9999998 -8,-8 z m 0,1 c 3.865993,-10e-8 7,3.1340067 7,7 0,3.865993 -3.134007,7 -7,7 -3.865993,0 -7,-3.134007 -7,-7 0,-3.8659933 3.134007,-7.0000001 7,-7 z m -0.0078,3 A 0.800462,1.0010008 0 0 0 76.4375,7.2890625 L 73.232422,11.292969 A 0.800462,1.0010008 0 0 0 73.800781,13 h 6.404297 a 0.800462,1.0010008 0 0 0 0.5625,-1.707031 L 77.570312,7.2890625 A 0.800462,1.0010008 0 0 0 76.992188,7 Z"/>
 </g>
 <g id="deactivated-center" transform="matrix(1,0,0,-1,88,22)">
  <rect id="rect880" style="opacity:0.001" width="22" height="22" x="0" y="0"/>
  <path id="path882" style="opacity:0.5;fill:#eff0f1" transform="translate(-88)" d="m 99,3 c -4.418278,2e-7 -8,3.5817221 -8,8 0,4.418278 3.581722,8 8,8 4.41828,0 8,-3.581722 8,-8 0,-4.4182779 -3.58172,-7.9999998 -8,-8 z m 0,1 c 3.86599,-10e-8 7,3.1340067 7,7 0,3.865993 -3.13401,7 -7,7 -3.865993,0 -7,-3.134007 -7,-7 0,-3.8659933 3.134007,-7.0000001 7,-7 z m -0.0078,3 A 0.800462,1.0010008 0 0 0 98.4375,7.2890625 L 95.232422,11.292969 A 0.800462,1.0010008 0 0 0 95.800781,13 h 6.404299 a 0.800462,1.0010008 0 0 0 0.5625,-1.707031 L 99.570312,7.2890625 A 0.800462,1.0010008 0 0 0 98.992188,7 Z"/>
 </g>
</svg>
