<?xml version="1.0" encoding="UTF-8" standalone="no"?>
<svg
   xmlns:dc="http://purl.org/dc/elements/1.1/"
   xmlns:cc="http://creativecommons.org/ns#"
   xmlns:rdf="http://www.w3.org/1999/02/22-rdf-syntax-ns#"
   xmlns:svg="http://www.w3.org/2000/svg"
   xmlns="http://www.w3.org/2000/svg"
   xmlns:sodipodi="http://sodipodi.sourceforge.net/DTD/sodipodi-0.dtd"
   xmlns:inkscape="http://www.inkscape.org/namespaces/inkscape"
   id="svg4306"
   style="enable-background:new"
   width="22"
   height="22"
   version="1.1"
   sodipodi:docname="minimize.svg"
   inkscape:version="0.92.5 (2060ec1f9f, 2020-04-08)">
  <metadata
     id="metadata24">
    <rdf:RDF>
      <cc:Work
         rdf:about="">
        <dc:format>image/svg+xml</dc:format>
        <dc:type
           rdf:resource="http://purl.org/dc/dcmitype/StillImage" />
      </cc:Work>
    </rdf:RDF>
  </metadata>
  <defs
     id="defs22" />
  <sodipodi:namedview
     pagecolor="#ffffff"
     bordercolor="#666666"
     borderopacity="1"
     objecttolerance="10"
     gridtolerance="10"
     guidetolerance="10"
     inkscape:pageopacity="0"
     inkscape:pageshadow="2"
     inkscape:window-width="793"
     inkscape:window-height="480"
     id="namedview20"
     showgrid="false"
     inkscape:zoom="10.727273"
     inkscape:cx="11"
     inkscape:cy="11"
     inkscape:window-x="417"
     inkscape:window-y="97"
     inkscape:window-maximized="0"
     inkscape:current-layer="svg4306" />
  <g
     id="active-center"
     style="fill:#ffe400;fill-opacity:1">
    <rect
       id="rect862"
       style="opacity:0.001;fill:#ffe400;fill-opacity:1"
       width="22"
       height="22"
       x="0"
       y="0" />
    <path
       id="path839"
       style="opacity:1;fill:#ffe400;fill-opacity:1"
       d="M 11 3 C 6.5817221 3.0000002 3.0000002 6.5817221 3 11 C 3.0000002 15.418278 6.5817221 19 11 19 C 15.418278 19 19 15.418278 19 11 C 19 6.5817221 15.418278 3.0000002 11 3 z M 11 4 C 14.865993 3.9999999 18 7.1340067 18 11 C 18 14.865993 14.865993 18 11 18 C 7.1340067 18 3.9999999 14.865993 4 11 C 3.9999999 7.1340067 7.1340067 3.9999999 11 4 z M 11 8 A 3 3 0 0 0 8 11 A 3 3 0 0 0 11 14 A 3 3 0 0 0 14 11 A 3 3 0 0 0 11 8 z" />
  </g>
  <g
     id="hover-center"
     transform="translate(22)">
    <rect
       id="rect858"
       style="opacity:0.001"
       width="22"
       height="22"
       x="0"
       y="0" />
    <rect
       id="rect860"
       style="opacity:0.1;fill:#ffffff"
       width="22"
       height="22"
       x="0"
       y="0"
       rx="6"
       ry="6" />
    <path
       id="path862"
       style="opacity:1;fill:#eff0f1"
       transform="translate(-22)"
       d="M 33 3 C 28.581722 3.0000002 25 6.5817221 25 11 C 25 15.418278 28.581722 19 33 19 C 37.418278 19 41 15.418278 41 11 C 41 6.5817221 37.418278 3.0000002 33 3 z M 33 4 C 36.865993 3.9999999 40 7.1340067 40 11 C 40 14.865993 36.865993 18 33 18 C 29.134007 18 26 14.865993 26 11 C 26 7.1340067 29.134007 3.9999999 33 4 z M 33 8 A 3 3 0 0 0 30 11 A 3 3 0 0 0 33 14 A 3 3 0 0 0 36 11 A 3 3 0 0 0 33 8 z" />
  </g>
  <g
     id="pressed-center"
     transform="translate(44)">
    <rect
       id="rect866"
       style="opacity:0.001"
       width="22"
       height="22"
       x="0"
       y="0" />
    <rect
       id="rect868"
       style="opacity:0.2;fill:#ffffff"
       width="22"
       height="22"
       x="0"
       y="0"
       rx="6"
       ry="6" />
    <path
       id="path870"
       style="opacity:1;fill:#eff0f1"
       transform="translate(-44)"
       d="M 55 3 C 50.581722 3.0000002 47 6.5817221 47 11 C 47 15.418278 50.581722 19 55 19 C 59.418278 19 63 15.418278 63 11 C 63 6.5817221 59.418278 3.0000002 55 3 z M 55 4 C 58.865993 3.9999999 62 7.1340067 62 11 C 62 14.865993 58.865993 18 55 18 C 51.134007 18 48 14.865993 48 11 C 48 7.1340067 51.134007 3.9999999 55 4 z M 55 8 A 3 3 0 0 0 52 11 A 3 3 0 0 0 55 14 A 3 3 0 0 0 58 11 A 3 3 0 0 0 55 8 z" />
  </g>
  <g
     id="inactive-center"
     transform="translate(66)">
    <rect
       id="rect874"
       style="opacity:0.001"
       width="22"
       height="22"
       x="0"
       y="0" />
    <path
       id="path876"
       style="opacity:0.5;fill:#eff0f1"
       transform="translate(-66)"
       d="M 77 3 C 72.581722 3.0000002 69 6.5817221 69 11 C 69 15.418278 72.581722 19 77 19 C 81.418278 19 85 15.418278 85 11 C 85 6.5817221 81.418278 3.0000002 77 3 z M 77 4 C 80.865993 3.9999999 84 7.1340067 84 11 C 84 14.865993 80.865993 18 77 18 C 73.134007 18 70 14.865993 70 11 C 70 7.1340067 73.134007 3.9999999 77 4 z M 77 8 A 3 3 0 0 0 74 11 A 3 3 0 0 0 77 14 A 3 3 0 0 0 80 11 A 3 3 0 0 0 77 8 z" />
  </g>
  <g
     id="deactivated-center"
     transform="translate(88)">
    <rect
       id="rect880"
       style="opacity:0.001"
       width="22"
       height="22"
       x="0"
       y="0" />
    <path
       id="path882"
       style="opacity:0.5;fill:#eff0f1"
       transform="translate(-88)"
       d="M 99 3 C 94.581722 3.0000002 91 6.5817221 91 11 C 91 15.418278 94.581722 19 99 19 C 103.41828 19 107 15.418278 107 11 C 107 6.5817221 103.41828 3.0000002 99 3 z M 99 4 C 102.86599 3.9999999 106 7.1340067 106 11 C 106 14.865993 102.86599 18 99 18 C 95.134007 18 92 14.865993 92 11 C 92 7.1340067 95.134007 3.9999999 99 4 z M 99 8 A 3 3 0 0 0 96 11 A 3 3 0 0 0 99 14 A 3 3 0 0 0 102 11 A 3 3 0 0 0 99 8 z" />
  </g>
</svg>
